<?xml version="1.0" encoding="UTF-8"?>
<svg width="33px" height="33px" viewBox="0 0 33 33" version="1.1" xmlns="http://www.w3.org/2000/svg" xmlns:xlink="http://www.w3.org/1999/xlink">
    <title>Untitled 2</title>
    <g id="Page-1" stroke="none" stroke-width="1" fill="none" fill-rule="evenodd">
        <g id="facebook" fill-rule="nonzero">
            <path d="M32.2981574,16.1490787 C32.2981574,7.23086297 25.0672944,0 16.1490787,0 C7.23086297,0 0,7.23086297 0,16.1490787 C0,24.2088566 5.90459916,30.8901376 13.6259981,32.1028514 L13.6259981,20.818254 L9.52457265,20.818254 L9.52457265,16.1490787 L13.6259981,16.1490787 L13.6259981,12.5904222 C13.6259981,8.54350079 16.0377997,6.30656611 19.7259032,6.30656611 C21.492741,6.30656611 23.3413347,6.62223506 23.3413347,6.62223506 L23.3413347,10.5964845 L21.304248,10.5964845 C19.2989553,10.5964845 18.6721594,11.8409923 18.6721594,13.1195651 L18.6721594,16.1490787 L23.1505707,16.1490787 L22.4352058,20.818254 L18.6721594,20.818254 L18.6721594,32.1028514 C26.3935583,30.8924086 32.2981574,24.2111276 32.2981574,16.1490787 Z" id="Path" fill="#1977F3"></path>
            <path d="M22.4352058,20.818254 L23.1505707,16.1490787 L18.6721594,16.1490787 L18.6721594,13.1195651 C18.6721594,11.8432633 19.2966843,10.5964845 21.304248,10.5964845 L23.3413347,10.5964845 L23.3413347,6.62223506 C23.3413347,6.62223506 21.492741,6.30656611 19.7259032,6.30656611 C16.0377997,6.30656611 13.6259981,8.54122979 13.6259981,12.5904222 L13.6259981,16.1490787 L9.52457265,16.1490787 L9.52457265,20.818254 L13.6259981,20.818254 L13.6259981,32.1028514 C14.4481,32.2322984 15.2906408,32.2981574 16.1490787,32.2981574 C17.0075166,32.2981574 17.8500575,32.2300274 18.6721594,32.1028514 L18.6721594,20.818254 L22.4352058,20.818254 Z" id="Path" fill="#FEFEFE"></path>
        </g>
    </g>
</svg>