<?xml version="1.0" encoding="UTF-8"?>
<svg width="32px" height="30px" viewBox="0 0 32 30" version="1.1" xmlns="http://www.w3.org/2000/svg" xmlns:xlink="http://www.w3.org/1999/xlink">
    <title>kakao 2</title>
    <g id="Page-1" stroke="none" stroke-width="1" fill="none" fill-rule="evenodd">
        <g id="kakao" fill="#3C1E1E" fill-rule="nonzero">
            <path d="M15.9996738,29.5509437 C7.16425504,29.5509437 0,23.8942826 0,16.9122923 C0,12.4275428 2.96732457,8.48990878 7.42355145,6.24245465 L5.91596079,0.614968488 C5.85826652,0.442213481 5.90612654,0.259296415 6.03134934,0.134729237 C6.11756294,0.0478600209 6.23262367,0 6.35751866,0 C6.45389432,0 6.54961436,0.0383535784 6.63615577,0.105554293 L13.1185661,4.48507401 C14.0600318,4.35067259 15.0205103,4.27396543 15.9996738,4.27396543 C24.8350926,4.27396543 32,9.93029872 32,16.9122923 C32,23.8942826 24.8350926,29.5509437 15.9996738,29.5509437" transform="translate(16.000000, 14.775472) scale(1, -1) translate(-16.000000, -14.775472) "></path>
        </g>
    </g>
</svg>